<svg width="330" height="56" viewBox="0 0 330 56" fill="none" xmlns="http://www.w3.org/2000/svg">
<path d="M60.9215 21.2274C60.7077 21.2799 60.2444 21.4199 59.9237 21.4549C60.5295 20.8774 60.8858 20.1774 60.8858 19.5999C60.6008 19.6874 60.0841 19.8799 59.6208 19.9849C60.5473 19.2149 61.064 18.3049 60.8324 17.1149C60.5473 17.2549 60.1553 17.4824 59.7455 17.6399C60.5651 16.4149 60.5473 15.3299 60.2088 14.6999C59.8524 15.0324 59.407 15.4174 58.9438 15.6974C59.2467 14.2799 59.2288 13.3699 58.6231 12.7224C57.9995 13.8774 57.465 14.7349 56.5919 15.7499C56.6632 14.8049 56.5563 13.6324 55.9327 13.0374C55.9327 13.0374 55.7545 14.3499 55.2913 14.7699C55.1844 13.4924 54.7746 12.7924 54.1866 12.1099C54.1866 12.1099 54.151 13.4399 53.7768 14.2624C53.4561 13.1424 52.886 12.2849 52.1377 11.4624C52.1911 13.9299 51.4963 18.5674 49.4829 21.6999C49.2513 23.5549 49.0375 26.3374 45.973 27.9824C45.5276 27.6849 44.7614 27.2824 43.6568 27.3524C43.3717 25.9524 45.2247 24.6924 46.8282 23.6774C48.4496 22.6449 49.1444 21.7699 49.1266 20.4049C49.091 18.8999 48.0576 18.2874 46.9886 18.2524C45.4741 18.1824 44.2447 19.5299 43.9597 20.0899C43.5142 20.2999 42.2314 20.6849 41.6969 20.8249C41.1089 20.9824 40.4497 21.2099 40.0221 21.5599C40.2715 21.7174 40.9842 21.7699 41.2515 21.7174C41.7682 21.6474 43.4073 21.3499 44.9574 21.1574C45.5276 21.4549 46.4362 21.9624 45.4741 22.6274C44.1378 23.4674 43.5677 23.6774 41.6969 24.6399C38.7393 26.1624 39.7014 29.9949 40.4141 30.2749C40.4141 31.5699 41.59 33.8974 42.3918 34.7199C42.7481 36.3474 42.2671 38.7624 41.7682 39.7774C41.3584 38.7974 40.6457 36.5049 40.1825 35.1749C40.6635 32.6549 39.8796 31.5349 39.3451 31.1149C38.8106 30.6774 37.9553 30.7999 37.3852 31.6749C38.2404 31.5874 38.5255 32.6549 38.5077 33.7749C38.4899 35.1049 38.1335 36.1899 37.1892 36.1899C37.2605 37.3274 38.5077 37.6599 39.1313 37.0999C39.2382 37.3624 39.737 38.8499 40.2003 40.1799C40.4854 40.9674 40.7526 41.7024 40.9308 42.0874C41.1268 42.5074 42.5699 42.5774 42.7303 42.0874C42.9619 41.4399 43.1401 40.9499 43.4964 40.1799C43.7637 39.6024 44.1557 38.8674 44.7258 37.7824C45.1178 38.4474 45.6345 39.4799 45.9195 40.1799C46.0621 40.5124 46.1512 40.7749 46.169 40.8974C46.2937 41.9824 46.2224 45.8499 45.9195 48.1599C42.6947 47.3024 41.7682 48.8424 42.0533 49.9974C42.5165 49.4899 43.1223 49.5599 43.4964 49.8224C43.4073 50.6624 43.639 51.2749 44.512 51.5374C45.4385 49.1224 48.7703 49.6649 49.091 49.8574C49.1088 49.3849 49.5542 48.2299 47.8438 47.9849C47.915 45.9024 48.1288 43.3474 48.2001 42.8224C48.2714 42.2974 48.3427 41.9649 48.0932 41.1249C48.0219 40.8799 47.915 40.5649 47.826 40.1974C47.5943 39.3574 47.3805 38.2549 47.3627 37.0649C47.6656 37.3624 48.3783 37.5899 48.8593 37.4849C49.2335 39.0599 49.7858 38.6049 50.0709 39.2699C50.2134 39.6024 50.2491 39.9349 50.2847 40.2149C50.3203 40.4949 50.3738 40.7224 50.5163 40.9324C51.6566 40.9674 52.6366 40.7049 53.3314 40.2149C53.5452 40.0749 53.7412 39.8999 53.8837 39.7249C53.5987 38.0449 53.1176 37.2224 52.2268 36.2074C51.9951 34.8424 51.3359 33.5824 50.4451 32.4624C51.5675 32.0949 52.7078 31.2024 53.3136 30.5724C53.8481 30.5374 54.4717 30.0999 54.5252 29.2249C54.8459 29.1899 55.1131 29.1724 55.3626 29.1199C55.3269 28.8749 55.2735 28.5249 55.2378 28.3149C55.6476 28.3149 56.0574 28.2974 56.4316 28.2624C56.3247 27.9474 56.1643 27.6149 56.0574 27.3699C56.4672 27.3699 56.9839 27.3349 57.3937 27.3174C57.1799 26.9149 57.0017 26.5474 56.877 26.1974C57.3581 26.1449 58.0886 26.0399 58.6943 25.8999C58.4983 25.7074 58.2845 25.4974 57.946 25.1824C59.5139 24.7274 60.2088 23.6424 60.2801 23.1699C60.0484 23.1699 59.5674 23.2749 59.2823 23.2399C60.2444 22.6799 60.8324 21.9799 60.9215 21.2274Z" fill="#022A50"/>
<path d="M29.0822 49.5951C20.2984 46.3751 19.176 39.3051 19.1403 36.0851C19.1403 36.0851 19.1225 36.0851 19.1047 36.0851C19.1225 35.9976 19.1225 35.9276 19.1403 35.8576C19.1403 35.1576 19.1938 34.6851 19.2116 34.5276C19.1938 34.0726 19.1225 33.7051 19.0334 33.4426C19.0156 33.3901 18.98 33.3376 18.9443 33.2676V36.5926C18.9443 40.3201 20.3341 43.5401 23.0779 46.1476C25.4832 48.4401 28.1914 49.5076 28.9575 49.7701L29.0822 49.8051L29.2069 49.7701C29.9731 49.4901 32.6812 48.4401 35.0865 46.1476C37.8304 43.5401 39.2201 40.3201 39.2201 36.5926V35.9801C39.1488 36.0851 39.0775 36.1551 39.0063 36.2426C38.935 37.9226 38.6143 40.5126 37.474 42.4726C36.1377 45.2201 34.0532 47.4776 29.0822 49.5951Z" fill="#022A50"/>
<path d="M50.1238 51.7475C49.6962 51.87 49.1617 51.9575 48.3778 51.9575H47.3978C44.0304 51.8875 40.5739 50.9075 38.4537 48.7725C41.3757 45.8675 37.937 43.4875 36.084 45.9375C35.4961 46.7075 35.0328 47.25 34.6409 48.0025C34.3201 48.5975 34.5518 49.21 35.2823 50.1375C35.6742 50.645 36.672 51.4325 37.4916 51.9575H20.6723C21.4741 51.4325 22.4718 50.645 22.8816 50.1375C23.6121 49.21 23.8616 48.615 23.523 48.0025C23.1132 47.25 22.65 46.7075 22.0799 45.9375C20.2269 43.47 16.7882 45.8675 19.7102 48.7725C17.59 50.9075 14.1335 51.8875 10.7661 51.9575H9.83957C9.05563 51.9575 8.52112 51.8875 8.09351 51.7475C7.39864 51.59 7.23829 51.87 7.61245 53.06C7.86189 53.83 8.07569 55.125 8.16478 56H50.0526C50.1416 55.125 50.3554 53.83 50.6049 53.0425C50.979 51.87 50.8187 51.5725 50.1238 51.7475ZM37.0105 46.0425C37.5628 45.325 38.3646 45.5175 38.6853 46.1125C39.0416 46.76 38.525 47.5475 37.8301 48.1775C36.8858 47.1625 36.7789 46.34 37.0105 46.0425ZM35.6208 49.42C35.2823 48.9475 35.1575 48.685 35.3357 48.23C35.5139 47.7925 35.8702 47.4075 36.2266 46.865C36.8145 49.105 40.2532 51.24 42.801 51.9575H38.7388C37.7232 51.38 36.3869 50.47 35.6208 49.42ZM19.4608 46.1125C19.7993 45.5175 20.601 45.325 21.1356 46.0425C21.3672 46.3575 21.2603 47.1625 20.316 48.1775C19.6211 47.5475 19.1044 46.76 19.4608 46.1125ZM21.9195 46.8475C22.2937 47.39 22.65 47.7925 22.8104 48.2125C22.9885 48.6675 22.8816 48.9475 22.5431 49.4025C21.777 50.4525 20.4407 51.3625 19.3895 51.9225H15.345C17.8929 51.24 21.3315 49.0875 21.9195 46.8475ZM49.3221 55.3525H8.89527C8.7171 54.0925 8.46766 53.27 8.25386 52.5875H49.9813C49.7497 53.27 49.5002 54.0925 49.3221 55.3525Z" fill="#022A50"/>
<path d="M40.9306 53.76C40.9306 53.41 40.9306 53.34 40.9306 53.27C40.9306 53.1825 40.9484 53.1475 41.0197 53.13C41.0553 53.13 41.091 53.13 41.1088 53.13C41.1444 53.13 41.1444 53.13 41.1444 53.1125C41.1444 53.095 41.1266 53.095 41.091 53.095C41.0019 53.095 40.8237 53.095 40.7703 53.095C40.699 53.095 40.5565 53.095 40.4496 53.095C40.4139 53.095 40.3961 53.095 40.3961 53.1125C40.3961 53.13 40.4139 53.13 40.4318 53.13C40.4674 53.13 40.4852 53.13 40.5208 53.13C40.5921 53.1475 40.6099 53.1825 40.6277 53.27C40.6277 53.34 40.6277 53.41 40.6277 53.76V54.18C40.6277 54.39 40.6277 54.5825 40.6099 54.6875C40.5921 54.7575 40.5921 54.81 40.5387 54.8275C40.5208 54.8275 40.4852 54.8275 40.4496 54.8275C40.4139 54.8275 40.4139 54.845 40.4139 54.845C40.4139 54.8625 40.4318 54.8625 40.4674 54.8625C40.5565 54.8625 40.7168 54.8625 40.7703 54.8625C40.9663 54.8625 41.1266 54.88 41.4651 54.88C41.5899 54.88 41.6077 54.8625 41.6077 54.81C41.6255 54.74 41.6433 54.565 41.6433 54.53C41.6433 54.495 41.6433 54.495 41.6255 54.495C41.6077 54.495 41.6077 54.5125 41.6077 54.53C41.6077 54.5825 41.572 54.635 41.5364 54.67C41.483 54.7225 41.3761 54.74 41.2513 54.74C41.0732 54.74 41.0019 54.7225 40.9663 54.6875C40.9128 54.635 40.9128 54.4775 40.9128 54.18V53.76H40.9306Z" fill="#022A50"/>
<path d="M44.0658 54.8974C44.1904 54.8974 44.3329 54.8799 44.4397 54.8099C44.6177 54.7049 44.6711 54.5299 44.6711 54.4074C44.6711 54.1799 44.5643 54.0224 44.2794 53.8124L44.2082 53.7599C44.0124 53.6199 43.959 53.5324 43.959 53.4274C43.959 53.2874 44.0658 53.1824 44.2438 53.1824C44.4041 53.1824 44.4753 53.2524 44.5109 53.3049C44.5643 53.3574 44.5821 53.4449 44.5821 53.4624C44.5821 53.4974 44.5999 53.4974 44.5999 53.4974C44.6177 53.4974 44.6177 53.4799 44.6177 53.4274C44.6177 53.2524 44.6355 53.1824 44.6355 53.1474C44.6355 53.1299 44.6177 53.1299 44.5999 53.1124C44.5465 53.0949 44.4397 53.0774 44.2794 53.0774C43.9412 53.0774 43.7276 53.2699 43.7276 53.5149C43.7276 53.7074 43.8166 53.8649 44.0836 54.0749L44.1904 54.1624C44.3863 54.3199 44.4219 54.4249 44.4219 54.5474C44.4219 54.6699 44.315 54.8099 44.1014 54.8099C43.959 54.8099 43.8166 54.7399 43.7632 54.5649C43.7454 54.5299 43.7454 54.4774 43.7454 54.4424C43.7454 54.4249 43.7454 54.3899 43.7276 54.3899C43.7098 54.3899 43.7098 54.4249 43.692 54.4599C43.692 54.4949 43.6742 54.6349 43.6742 54.7574C43.6742 54.8099 43.6742 54.8274 43.7276 54.8449C43.8166 54.8799 43.9234 54.8974 44.0658 54.8974Z" fill="#022A50"/>
<path d="M42.4092 54.1799C42.4092 54.4074 42.4092 54.5999 42.3914 54.7049C42.3914 54.7749 42.3736 54.8099 42.3202 54.8274C42.3024 54.8274 42.2668 54.8274 42.2312 54.8274C42.1956 54.8274 42.1956 54.8449 42.1956 54.8449C42.1956 54.8624 42.2134 54.8624 42.249 54.8624C42.3558 54.8624 42.4982 54.8624 42.5516 54.8624C42.6228 54.8624 42.7652 54.8624 42.9254 54.8624C42.9432 54.8624 42.9788 54.8624 42.9788 54.8449C42.9788 54.8274 42.961 54.8274 42.9432 54.8274C42.9076 54.8274 42.8542 54.8274 42.8186 54.8274C42.7474 54.8099 42.7296 54.7749 42.7296 54.7049C42.7118 54.5999 42.7118 54.4249 42.7118 54.1799V53.7599C42.7118 53.4099 42.7118 53.3399 42.7118 53.2699C42.7118 53.1824 42.7296 53.1474 42.8008 53.1299C42.8364 53.1299 42.8364 53.1299 42.872 53.1299C42.9076 53.1299 42.9076 53.1299 42.9076 53.0949C42.9076 53.0774 42.8898 53.0774 42.8542 53.0774C42.7652 53.0774 42.6228 53.0774 42.5694 53.0774C42.4982 53.0774 42.3558 53.0774 42.249 53.0774C42.2134 53.0774 42.1956 53.0774 42.1956 53.0949C42.1956 53.1124 42.2134 53.1299 42.2312 53.1299C42.2668 53.1299 42.3024 53.1299 42.3202 53.1299C42.3736 53.1474 42.3914 53.1824 42.4092 53.2699C42.4092 53.3399 42.4092 53.4099 42.4092 53.7599V54.1799Z" fill="#022A50"/>
<path d="M36.2089 54.1799C36.2089 54.3899 36.2089 54.5824 36.1911 54.6874C36.1911 54.7574 36.1733 54.8099 36.1198 54.8099C36.102 54.8099 36.0664 54.8099 36.0307 54.8099C36.0129 54.8099 35.9951 54.8099 35.9951 54.8274C35.9951 54.8449 36.0129 54.8449 36.0486 54.8449C36.1376 54.8449 36.298 54.8449 36.3515 54.8449C36.4762 54.8449 36.69 54.8624 36.8681 54.8624C37.3136 54.8624 37.563 54.7049 37.6699 54.5824C37.8124 54.4424 37.9372 54.2149 37.9372 53.9349C37.9372 53.6549 37.8303 53.4624 37.7055 53.3399C37.4383 53.0774 37.0463 53.0774 36.7434 53.0774C36.6009 53.0774 36.4405 53.0774 36.3693 53.0774C36.298 53.0774 36.1555 53.0774 36.0307 53.0774C35.9951 53.0774 35.9773 53.0774 35.9773 53.0949C35.9773 53.1124 35.9951 53.1124 36.0129 53.1124C36.0486 53.1124 36.0842 53.1124 36.102 53.1124C36.1733 53.1299 36.1911 53.1649 36.2089 53.2524C36.2089 53.3224 36.2089 53.3924 36.2089 53.7424V54.1799ZM36.5118 53.7249V53.2524C36.5118 53.2349 36.5296 53.2174 36.5474 53.1999C36.5653 53.1999 36.6543 53.1824 36.7078 53.1824C36.9038 53.1824 37.171 53.2174 37.3848 53.4274C37.4917 53.5324 37.6165 53.7074 37.6165 54.0049C37.6165 54.2499 37.563 54.4599 37.4205 54.5999C37.2779 54.7224 37.1176 54.7749 36.8681 54.7749C36.6722 54.7749 36.5831 54.7224 36.5474 54.6874C36.5296 54.6524 36.5296 54.5649 36.5118 54.5124C36.5118 54.4599 36.5118 54.2849 36.5118 54.0399V53.7249Z" fill="#022A50"/>
<path d="M34.7656 54.1799C34.7656 54.4074 34.7656 54.5999 34.7478 54.7049C34.7478 54.7749 34.73 54.8099 34.6766 54.8274C34.6588 54.8274 34.6232 54.8274 34.5876 54.8274C34.552 54.8274 34.552 54.8449 34.552 54.8449C34.552 54.8624 34.5698 54.8624 34.6054 54.8624C34.6944 54.8624 34.8546 54.8624 34.908 54.8624C34.9792 54.8624 35.1217 54.8624 35.2819 54.8624C35.2997 54.8624 35.3175 54.8624 35.3175 54.8449C35.3175 54.8274 35.2997 54.8274 35.2819 54.8274C35.2463 54.8274 35.1929 54.8274 35.1573 54.8274C35.086 54.8099 35.0682 54.7749 35.0682 54.7049C35.0682 54.5999 35.0682 54.4249 35.0682 54.1799V53.7599C35.0682 53.4099 35.0682 53.3399 35.0682 53.2699C35.0682 53.1824 35.086 53.1474 35.1573 53.1299C35.1751 53.1299 35.2107 53.1299 35.2285 53.1299C35.2463 53.1299 35.2641 53.1299 35.2641 53.0949C35.2641 53.0774 35.2463 53.0774 35.2107 53.0774C35.1217 53.0774 34.9792 53.0774 34.9258 53.0774C34.8546 53.0774 34.7122 53.0774 34.6232 53.0774C34.5876 53.0774 34.5698 53.0774 34.5698 53.0949C34.5698 53.1124 34.5876 53.1299 34.6054 53.1299C34.6232 53.1299 34.6588 53.1299 34.6944 53.1299C34.7478 53.1474 34.7656 53.1824 34.7834 53.2699C34.7834 53.3399 34.7834 53.4099 34.7834 53.7599V54.1799H34.7656Z" fill="#022A50"/>
<path d="M33.2337 53.9874C33.2337 53.9699 33.2337 53.9699 33.2515 53.9699C33.2872 53.9699 33.5366 53.9699 33.6079 53.9874C33.6792 53.9874 33.7148 54.0399 33.7326 54.0749C33.7326 54.1099 33.7504 54.1274 33.7504 54.1449C33.7504 54.1624 33.7504 54.1799 33.7682 54.1799C33.7861 54.1799 33.7861 54.1624 33.7861 54.1274C33.7861 54.1099 33.7861 54.0049 33.8039 53.9524C33.8039 53.8824 33.8217 53.8299 33.8217 53.8124C33.8217 53.7949 33.8217 53.7949 33.8039 53.7949C33.7861 53.7949 33.7861 53.8124 33.7682 53.8124C33.7504 53.8474 33.7148 53.8474 33.6613 53.8474C33.6257 53.8474 33.5901 53.8474 33.5544 53.8474H33.2515C33.2337 53.8474 33.2337 53.8474 33.2337 53.8299V53.2524C33.2337 53.2349 33.2515 53.2174 33.2515 53.2174L33.6257 53.2349C33.7148 53.2349 33.7682 53.2699 33.7861 53.3049C33.8039 53.3399 33.8039 53.3749 33.8039 53.3924C33.8039 53.4274 33.8039 53.4274 33.8217 53.4274C33.8395 53.4274 33.8395 53.4099 33.8395 53.3924C33.8395 53.3574 33.8395 53.2174 33.8573 53.1999C33.8751 53.1474 33.8751 53.1124 33.8751 53.0949C33.8751 53.0774 33.8751 53.0774 33.8573 53.0774C33.8395 53.0774 33.8395 53.0949 33.8217 53.0949C33.8039 53.0949 33.7682 53.0949 33.7148 53.0949H33.0912C33.0199 53.0949 32.8774 53.0949 32.7527 53.0949C32.717 53.0949 32.6992 53.0949 32.6992 53.1124C32.6992 53.1299 32.717 53.1299 32.7349 53.1299C32.7705 53.1299 32.8061 53.1299 32.8239 53.1299C32.8952 53.1474 32.913 53.1824 32.9308 53.2699C32.9308 53.3399 32.9308 53.4099 32.9308 53.7599V54.1799C32.9308 54.4074 32.9308 54.5824 32.913 54.6874C32.8952 54.7574 32.8952 54.8099 32.8418 54.8099C32.8239 54.8099 32.7883 54.8099 32.7527 54.8099C32.717 54.8099 32.717 54.8274 32.717 54.8274C32.717 54.8449 32.7349 54.8449 32.7705 54.8449C32.8596 54.8449 33.0021 54.8449 33.0734 54.8449C33.1446 54.8449 33.2872 54.8449 33.4297 54.8449C33.4653 54.8449 33.4832 54.8449 33.4832 54.8274C33.4832 54.8099 33.4654 54.8099 33.4475 54.8099C33.4119 54.8099 33.3584 54.8099 33.3228 54.8099C33.2515 54.7924 33.2337 54.7399 33.2337 54.6874C33.2159 54.5824 33.2159 54.4074 33.2159 54.1799V53.9874H33.2337Z" fill="#022A50"/>
<path d="M18.0536 54.1799C18.0536 54.3899 18.0536 54.5824 18.0358 54.6874C18.0358 54.7574 18.018 54.8099 17.9646 54.8099C17.9467 54.8099 17.9111 54.8099 17.8755 54.8099C17.8398 54.8099 17.8398 54.8099 17.8398 54.8274C17.8398 54.8449 17.8577 54.8449 17.8933 54.8449C17.9824 54.8449 18.1427 54.8449 18.1962 54.8449C18.3209 54.8449 18.5347 54.8624 18.7129 54.8624C19.1583 54.8624 19.4077 54.7049 19.5146 54.5824C19.6572 54.4424 19.7819 54.2149 19.7819 53.9349C19.7819 53.6549 19.675 53.4624 19.5503 53.3399C19.283 53.0774 18.891 53.0774 18.5881 53.0774C18.4456 53.0774 18.2853 53.0774 18.214 53.0774C18.1427 53.0774 18.0002 53.0774 17.8577 53.0774C17.822 53.0774 17.8042 53.0774 17.8042 53.0949C17.8042 53.1124 17.822 53.1124 17.8398 53.1124C17.8755 53.1124 17.9111 53.1124 17.9467 53.1124C18.018 53.1299 18.0358 53.1649 18.0536 53.2524C18.0536 53.3224 18.0536 53.3924 18.0536 53.7424V54.1799ZM18.3565 53.7249C18.3565 53.5499 18.3565 53.3399 18.3565 53.2524C18.3565 53.2349 18.3743 53.2174 18.3922 53.1999C18.41 53.1999 18.4991 53.1824 18.5525 53.1824C18.7485 53.1824 19.0158 53.2174 19.2296 53.4274C19.3365 53.5324 19.4612 53.7074 19.4612 54.0049C19.4612 54.2499 19.4077 54.4599 19.2652 54.5999C19.1227 54.7224 18.9623 54.7749 18.7129 54.7749C18.5169 54.7749 18.4278 54.7224 18.3922 54.6874C18.3743 54.6524 18.3743 54.5649 18.3743 54.5124C18.3743 54.4599 18.3743 54.2849 18.3743 54.0399V53.7249H18.3565Z" fill="#022A50"/>
<path d="M15.5591 54.1099C15.5591 54.4424 15.6482 54.6174 15.7729 54.7399C15.9511 54.8974 16.1827 54.8974 16.3074 54.8974C16.4678 54.8974 16.646 54.8799 16.8063 54.7224C17.0023 54.5649 17.0379 54.2849 17.0379 54.0049V53.7599C17.0379 53.4099 17.0379 53.3399 17.0379 53.2699C17.0379 53.1824 17.0558 53.1474 17.127 53.1299C17.1627 53.1299 17.1805 53.1299 17.1983 53.1299C17.2339 53.1299 17.2339 53.1299 17.2339 53.1124C17.2339 53.0949 17.2161 53.0949 17.1805 53.0949C17.0914 53.0949 16.931 53.0949 16.9132 53.0949C16.9132 53.0949 16.7707 53.0949 16.646 53.0949C16.6103 53.0949 16.5925 53.0949 16.5925 53.1124C16.5925 53.1299 16.6103 53.1299 16.6281 53.1299C16.646 53.1299 16.6994 53.1299 16.7172 53.1299C16.7885 53.1474 16.8063 53.1824 16.8241 53.2699C16.8241 53.3399 16.8241 53.4099 16.8241 53.7599V54.0574C16.8241 54.3024 16.8241 54.5124 16.6816 54.6349C16.5747 54.7224 16.45 54.7574 16.3431 54.7574C16.254 54.7574 16.1471 54.7399 16.0402 54.6524C15.9155 54.5474 15.862 54.4074 15.862 54.0749V53.7424C15.862 53.3924 15.862 53.3224 15.862 53.2524C15.862 53.1649 15.8976 53.1299 15.9511 53.1124C15.9867 53.1124 15.9867 53.1124 16.0224 53.1124C16.0402 53.1124 16.058 53.1124 16.058 53.0949C16.058 53.0774 16.0402 53.0774 16.0045 53.0774C15.9155 53.0774 15.7729 53.0774 15.7017 53.0774C15.6304 53.0774 15.47 53.0774 15.3453 53.0774C15.3097 53.0774 15.2919 53.0774 15.2919 53.0949C15.2919 53.1124 15.3097 53.1124 15.3275 53.1124C15.3631 53.1124 15.3988 53.1124 15.4166 53.1124C15.5057 53.1299 15.5235 53.1649 15.5235 53.2524C15.5235 53.3224 15.5235 53.3924 15.5235 53.7424V54.1099H15.5591Z" fill="#022A50"/>
<path d="M38.7565 54.1801C38.7565 54.3901 38.7565 54.5826 38.7387 54.6876C38.7209 54.7576 38.7209 54.8101 38.6674 54.8101C38.6496 54.8101 38.614 54.8101 38.5784 54.8101C38.5427 54.8101 38.5427 54.8276 38.5427 54.8276C38.5427 54.8451 38.5605 54.8451 38.5962 54.8451C38.6853 54.8451 38.8456 54.8451 38.8991 54.8451C39.0416 54.8451 39.202 54.8626 39.5583 54.8626C39.6474 54.8626 39.6652 54.8626 39.683 54.7926C39.7008 54.7401 39.7187 54.5826 39.7187 54.5301C39.7187 54.5126 39.7187 54.4776 39.7008 54.4776C39.683 54.4776 39.683 54.4951 39.683 54.5126C39.6652 54.6001 39.6296 54.6526 39.5761 54.6876C39.5227 54.7226 39.4158 54.7226 39.3445 54.7226C39.0951 54.7226 39.0594 54.6876 39.0594 54.5301C39.0594 54.4601 39.0594 54.2501 39.0594 54.1626V53.9701C39.0594 53.9526 39.0594 53.9526 39.0772 53.9526C39.1307 53.9526 39.3623 53.9526 39.4158 53.9526C39.5048 53.9526 39.5405 53.9876 39.5583 54.0401C39.5583 54.0751 39.5583 54.1101 39.5761 54.1276C39.5761 54.1451 39.5761 54.1451 39.5939 54.1451C39.6117 54.1451 39.6117 54.1276 39.6117 54.1101C39.6117 54.0926 39.6117 54.0051 39.6296 53.9526C39.6296 53.8301 39.6474 53.7951 39.6474 53.7776C39.6474 53.7601 39.6296 53.7601 39.6296 53.7601C39.6117 53.7601 39.6117 53.7776 39.5939 53.7951C39.5761 53.8126 39.5405 53.8301 39.487 53.8301C39.4336 53.8301 39.1485 53.8301 39.1129 53.8301C39.0951 53.8301 39.0951 53.8301 39.0951 53.8126V53.2176C39.0951 53.2001 39.0951 53.2001 39.1129 53.2001C39.1663 53.2001 39.4158 53.2001 39.4514 53.2176C39.5761 53.2351 39.5939 53.2526 39.6117 53.3051C39.6296 53.3401 39.6296 53.3751 39.6296 53.3926C39.6296 53.4101 39.6296 53.4276 39.6474 53.4276C39.6652 53.4276 39.6652 53.4101 39.6652 53.3926C39.6652 53.3576 39.683 53.2526 39.683 53.2351C39.683 53.1301 39.7008 53.0951 39.7008 53.0776C39.7008 53.0601 39.7008 53.0601 39.683 53.0601C39.6652 53.0601 39.6652 53.0776 39.6474 53.0776C39.6296 53.0776 39.5939 53.0951 39.5405 53.0951H38.9347C38.8634 53.0951 38.7209 53.0951 38.5962 53.0951C38.5605 53.0951 38.5427 53.0951 38.5427 53.1126C38.5427 53.1301 38.5605 53.1301 38.5784 53.1301C38.614 53.1301 38.6496 53.1301 38.6674 53.1301C38.7565 53.1476 38.7743 53.1826 38.7743 53.2701C38.7743 53.3401 38.7743 53.4101 38.7743 53.7601V54.1801H38.7565Z" fill="#022A50"/>
<path d="M29.0642 54.1801C29.0642 54.3901 29.0642 54.5826 29.0464 54.6876C29.0464 54.7576 29.0286 54.8101 28.9752 54.8101C28.9573 54.8101 28.9217 54.8101 28.8861 54.8101C28.8504 54.8101 28.8504 54.8276 28.8504 54.8276C28.8504 54.8451 28.8683 54.8451 28.9039 54.8451C29.0108 54.8451 29.1533 54.8451 29.2068 54.8451C29.278 54.8451 29.4206 54.8451 29.5809 54.8451C29.5988 54.8451 29.6166 54.8451 29.6166 54.8276C29.6166 54.8101 29.5988 54.8101 29.5809 54.8101C29.5453 54.8101 29.4919 54.8101 29.4562 54.8101C29.385 54.7926 29.3671 54.7401 29.3671 54.6876C29.3493 54.5826 29.3493 54.3901 29.3493 54.1801V53.2176H29.6522C29.866 53.2176 29.9373 53.2876 29.9373 53.3576V53.3751C29.9373 53.4101 29.9551 53.4276 29.9729 53.4276C29.9907 53.4276 29.9907 53.4101 29.9907 53.3926C29.9907 53.3226 29.9907 53.1651 29.9907 53.1301C29.9907 53.0951 29.9907 53.0776 29.9729 53.0776C29.9551 53.0776 29.9016 53.0951 29.7413 53.0951H28.797C28.7257 53.0951 28.6188 53.0951 28.5654 53.0951C28.5119 53.0951 28.4763 53.0601 28.4585 53.0601C28.4407 53.0601 28.4407 53.0776 28.4228 53.1126C28.4228 53.1301 28.3694 53.3401 28.3694 53.3751C28.3694 53.4101 28.3694 53.4101 28.3872 53.4101C28.405 53.4101 28.405 53.3926 28.405 53.3751C28.405 53.3576 28.4228 53.3226 28.4407 53.2876C28.4763 53.2351 28.5297 53.2176 28.6723 53.2176H29.0286V54.1801H29.0642Z" fill="#022A50"/>
<path d="M23.6838 53.3226C23.7551 53.2176 23.8085 53.1476 23.862 53.1301C23.8976 53.1301 23.9332 53.1126 23.951 53.1126C23.9689 53.1126 23.9867 53.0951 23.9867 53.0951C23.9867 53.0776 23.9689 53.0776 23.951 53.0776C23.862 53.0776 23.7729 53.0776 23.7194 53.0776C23.6838 53.0776 23.5769 53.0776 23.4878 53.0776C23.4522 53.0776 23.4344 53.0776 23.4344 53.0951C23.4344 53.1126 23.4522 53.1126 23.47 53.1126C23.4878 53.1126 23.5234 53.1126 23.5413 53.1126C23.5591 53.1126 23.5769 53.1301 23.5769 53.1476C23.5769 53.1651 23.5769 53.2001 23.5591 53.2351C23.5234 53.3051 23.3096 53.6201 23.2384 53.7251C23.1493 53.5676 23.0424 53.3926 22.9355 53.2001C22.9177 53.1826 22.9177 53.1476 22.9177 53.1301C22.9177 53.1126 22.9177 53.0951 22.9533 53.0951C22.9711 53.0951 23.0067 53.0951 23.0246 53.0951C23.0424 53.0951 23.0602 53.0951 23.0602 53.0776C23.0602 53.0601 23.0424 53.0601 23.0067 53.0601C22.9177 53.0601 22.7751 53.0601 22.7573 53.0601C22.6504 53.0601 22.4544 53.0601 22.401 53.0601C22.3653 53.0601 22.3475 53.0601 22.3475 53.0776C22.3475 53.0951 22.3475 53.0951 22.3653 53.0951C22.3832 53.0951 22.4366 53.0951 22.4722 53.1126C22.5613 53.1301 22.6148 53.2001 22.6682 53.2876L23.078 53.9526L22.6148 54.6001C22.5257 54.7226 22.4901 54.7576 22.4188 54.7751C22.3832 54.7926 22.3475 54.7926 22.3297 54.7926C22.3119 54.7926 22.2941 54.8101 22.2941 54.8101C22.2941 54.8276 22.3119 54.8276 22.3297 54.8276H22.3653C22.401 54.8276 22.5257 54.8276 22.5613 54.8276C22.6148 54.8276 22.7751 54.8276 22.7929 54.8276H22.8286C22.8642 54.8276 22.882 54.8276 22.882 54.8101C22.882 54.7926 22.8642 54.7926 22.8464 54.7926C22.8286 54.7926 22.8108 54.7926 22.7929 54.7926C22.7751 54.7926 22.7395 54.7751 22.7395 54.7576C22.7395 54.7226 22.7573 54.7051 22.7751 54.6526L23.1315 54.0926C23.2384 54.2676 23.3809 54.4951 23.5056 54.7226C23.5234 54.7576 23.5056 54.7751 23.5056 54.7751C23.4878 54.7751 23.47 54.7926 23.47 54.7926C23.47 54.8101 23.4878 54.8276 23.5591 54.8276C23.7372 54.8276 23.9332 54.8276 23.9867 54.8276H24.058C24.0936 54.8276 24.1114 54.8276 24.1114 54.8101C24.1114 54.7926 24.0936 54.7926 24.0758 54.7926C24.058 54.7926 24.0223 54.7926 23.9867 54.7751C23.9154 54.7576 23.8798 54.7226 23.8441 54.6701C23.7907 54.6001 23.3987 53.9526 23.3275 53.8476L23.6838 53.3226Z" fill="#022A50"/>
<path d="M27.6035 54.46C27.6213 54.46 27.6213 54.46 27.6213 54.4775L27.7282 54.775C27.746 54.81 27.7282 54.8275 27.7104 54.8275C27.6926 54.8275 27.6748 54.8275 27.6748 54.845C27.6748 54.8625 27.7104 54.8625 27.746 54.8625C27.942 54.8625 28.1024 54.8625 28.1915 54.8625C28.2805 54.8625 28.2984 54.8625 28.2984 54.845C28.2984 54.8275 28.2805 54.8275 28.2627 54.8275C28.2271 54.8275 28.1915 54.8275 28.1558 54.8275C28.1024 54.81 28.0311 54.7925 27.942 54.565C27.7817 54.215 27.4075 53.2525 27.3541 53.1125C27.3362 53.06 27.3184 53.0425 27.2828 53.0425C27.265 53.0425 27.2472 53.0775 27.2115 53.1475L26.6057 54.6175C26.5523 54.74 26.5167 54.81 26.4098 54.8275C26.3919 54.8275 26.3563 54.8275 26.3385 54.8275C26.3207 54.8275 26.3029 54.8275 26.3029 54.845C26.3029 54.8625 26.3207 54.8625 26.3563 54.8625C26.481 54.8625 26.6057 54.8625 26.6414 54.8625C26.7126 54.8625 26.8195 54.8625 26.8908 54.8625C26.9265 54.8625 26.9265 54.8625 26.9265 54.845C26.9265 54.8275 26.9265 54.8275 26.8908 54.8275H26.8552C26.7839 54.8275 26.7661 54.7925 26.7661 54.7575C26.7661 54.74 26.7839 54.67 26.8017 54.6175L26.8552 54.495C26.8552 54.4775 26.873 54.4775 26.873 54.4775H27.6035V54.46ZM26.9621 54.3375C26.9443 54.3375 26.9443 54.3375 26.9443 54.32L27.2472 53.5325C27.2472 53.5325 27.2472 53.515 27.265 53.515C27.265 53.515 27.265 53.5325 27.2828 53.5325L27.5857 54.32C27.5857 54.32 27.5857 54.3375 27.5679 54.3375H26.9621Z" fill="#022A50"/>
<path d="M21.3498 54.46C21.3677 54.46 21.3677 54.46 21.3677 54.4775L21.4746 54.775C21.4924 54.81 21.4746 54.8275 21.4567 54.8275C21.4389 54.8275 21.4211 54.8275 21.4211 54.845C21.4211 54.8625 21.4567 54.8625 21.4924 54.8625C21.6884 54.8625 21.8665 54.8625 21.9378 54.8625C22.0269 54.8625 22.0447 54.8625 22.0447 54.845C22.0447 54.8275 22.0269 54.8275 22.0091 54.8275C21.9734 54.8275 21.9378 54.8275 21.9022 54.8275C21.8487 54.81 21.7774 54.7925 21.6884 54.565C21.528 54.215 21.1538 53.2525 21.0826 53.1125C21.0648 53.06 21.0469 53.0425 21.0291 53.0425C21.0113 53.0425 20.9935 53.0775 20.9579 53.1475L20.3521 54.6175C20.2986 54.74 20.263 54.81 20.1561 54.8275C20.1383 54.8275 20.1026 54.8275 20.0848 54.8275C20.067 54.8275 20.0492 54.8275 20.0492 54.845C20.0492 54.8625 20.067 54.8625 20.1026 54.8625C20.2274 54.8625 20.3521 54.8625 20.3877 54.8625C20.459 54.8625 20.5659 54.8625 20.6372 54.8625C20.6728 54.8625 20.6728 54.8625 20.6728 54.845C20.6728 54.8275 20.6728 54.8275 20.6372 54.8275H20.6015C20.5303 54.8275 20.5124 54.7925 20.5124 54.7575C20.5124 54.74 20.5303 54.67 20.5481 54.6175L20.6015 54.495C20.6015 54.4775 20.6193 54.4775 20.6193 54.4775H21.3498V54.46ZM20.6906 54.3375C20.6906 54.3375 20.6728 54.3375 20.6906 54.32L20.9935 53.5325L21.0113 53.515L21.0291 53.5325L21.332 54.32C21.332 54.3375 21.332 54.3375 21.3142 54.3375H20.6906Z" fill="#022A50"/>
<path d="M14.3655 54.4599C14.3655 54.4599 14.3833 54.4599 14.3833 54.4774L14.4902 54.7749C14.508 54.8099 14.4902 54.8274 14.4724 54.8274C14.4546 54.8274 14.4367 54.8274 14.4367 54.8449C14.4367 54.8624 14.4724 54.8624 14.508 54.8624C14.704 54.8624 14.8822 54.8624 14.9534 54.8624C15.0425 54.8624 15.0603 54.8624 15.0603 54.8449C15.0603 54.8274 15.0425 54.8274 15.0247 54.8274C14.9891 54.8274 14.9534 54.8274 14.9178 54.8274C14.8644 54.8099 14.7931 54.7924 14.704 54.5649C14.5436 54.2149 14.1695 53.2524 14.116 53.1124C14.116 53.0599 14.116 53.0249 14.0804 53.0249C14.0626 53.0249 14.0448 53.0599 14.0091 53.1299L13.4212 54.5999C13.3677 54.7224 13.3321 54.7924 13.2252 54.8099C13.2074 54.8099 13.1717 54.8099 13.1539 54.8099C13.1361 54.8099 13.1183 54.8099 13.1183 54.8274C13.1183 54.8449 13.1361 54.8449 13.1717 54.8449C13.2965 54.8449 13.4212 54.8449 13.4568 54.8449C13.5281 54.8449 13.635 54.8449 13.7062 54.8449C13.7241 54.8449 13.7419 54.8449 13.7419 54.8274C13.7419 54.8099 13.7419 54.8099 13.7062 54.8099H13.6528C13.5815 54.8099 13.5637 54.7749 13.5637 54.7399C13.5637 54.7224 13.5815 54.6524 13.5993 54.5999L13.6528 54.4774C13.6528 54.4599 13.6706 54.4599 13.6706 54.4599H14.3655ZM13.7241 54.3374C13.7062 54.3374 13.7062 54.3374 13.7062 54.3199L14.0091 53.5324L14.027 53.5149C14.027 53.5149 14.027 53.5324 14.0448 53.5324L14.3477 54.3199C14.3477 54.3374 14.3477 54.3374 14.3298 54.3374H13.7241Z" fill="#022A50"/>
<path d="M36.8503 36.1725L36.8325 35.8225H37.1889C37.6699 35.8225 37.9194 35.3675 38.0441 34.825C36.1555 34.8075 29.4207 34.8425 29.4207 34.8425V41.6675C29.9908 41.265 30.5253 40.915 31.238 40.705V39.515V39.2H31.5587H31.9507C31.9863 37.555 32.3961 36.3475 33.18 35.56L33.4117 35.3325L33.6433 35.56C34.4272 36.3475 34.8192 37.5375 34.8727 39.2H35.2824H35.6032V39.515V40.7925C36.3693 41.1075 36.886 41.58 37.2958 42.0875C37.9372 40.81 38.4004 39.34 38.5608 37.6425C38.5251 37.6425 38.4895 37.66 38.4539 37.66C37.6877 37.66 36.9038 37.1525 36.8503 36.1725Z" fill="#022A50"/>
<path d="M33.376 41.0376C31.3271 41.0376 30.5431 41.5976 29.4207 42.4376V48.9651C29.4207 48.9651 34.2669 47.3201 36.9216 42.7176C36.298 41.8426 35.4072 41.0376 33.376 41.0376ZM35.0508 43.6801L34.4451 42.9976L33.4117 43.9076L33.8393 44.3801C33.8393 44.3801 34.2847 44.1701 34.6589 44.6251C34.3738 44.8701 33.8571 45.3076 33.572 45.5526C33.18 45.1151 33.4473 44.7126 33.4473 44.7126L33.0197 44.2401L31.7369 45.3601L31.3271 44.8876L32.6277 43.8026L32.1645 43.2776C32.1645 43.2776 31.9863 43.4351 31.7369 43.6451C31.3627 43.2251 31.0776 42.6651 31.3449 41.9651C32.0932 41.7901 32.6099 42.1576 32.9841 42.5776C32.7346 42.8051 32.5564 42.9451 32.5564 42.9451L33.0375 43.4876L34.1065 42.6126L33.5007 41.9126C34.0531 41.8426 34.5341 42.0351 34.8192 42.3501C35.0508 42.6651 35.1934 43.1551 35.0508 43.6801Z" fill="#022A50"/>
<path d="M38.5255 34.825C38.5255 34.825 38.472 34.825 38.3829 34.825C38.2226 35.6125 37.8484 36.155 37.1892 36.155C37.2427 36.925 37.8484 37.3275 38.4186 37.3275C38.472 37.3275 38.5077 37.31 38.5611 37.31C38.5968 36.5225 38.6146 35.7 38.5255 34.825Z" fill="#022A50"/>
<path d="M20.4765 34.7725C19.9955 34.7725 19.6748 34.7725 19.6748 34.79C19.55 36.155 19.6035 37.3975 19.7995 38.535C20.2984 37.73 20.7972 36.925 20.7616 36.365C20.7438 35.77 20.6012 35.245 20.4765 34.7725Z" fill="#022A50"/>
<path d="M20.8153 34.7725C20.94 35.245 21.0825 35.77 21.1004 36.3475C21.1182 37.0125 20.6193 37.835 20.0848 38.71C20.0135 38.815 19.9601 38.9025 19.9066 39.0075C21.4389 46.4625 28.7795 48.9475 28.7795 48.9475V34.79C28.7973 34.79 23.274 34.7725 20.8153 34.7725ZM26.3207 43.6275C25.9644 43.6975 25.3764 43.75 24.9845 43.75C24.5925 43.75 24.0223 43.715 23.6482 43.6275C23.6838 43.47 23.7373 43.26 23.7907 43.05C23.5235 43.0325 23.2384 42.9275 23.0068 42.84C23.1137 42.455 23.2918 42.07 23.4344 41.545C23.9333 41.65 24.4143 41.7025 24.9666 41.7025C25.519 41.7025 26 41.6675 26.4989 41.545C26.6414 42.07 26.8196 42.455 26.9443 42.84C26.7305 42.91 26.4455 43.015 26.1604 43.05C26.2317 43.26 26.2851 43.47 26.3207 43.6275ZM23.3275 40.53C23.5947 40.425 24.6816 40.39 25.0023 40.39C25.323 40.39 26.392 40.4425 26.6771 40.53C26.7127 40.67 26.7127 40.8625 26.6949 41.02C26.2851 41.1425 25.5546 41.195 25.0201 41.195C24.4678 41.195 23.7551 41.125 23.3453 41.02C23.2918 40.8625 23.2918 40.67 23.3275 40.53ZM27.4076 37.7475C26.9978 38.6925 26.6058 39.69 26.4811 39.9875C26.2673 39.9525 26.0357 39.935 25.804 39.9175C26.0713 39.0775 26.4098 37.8875 26.6949 37.135C26.8731 36.61 27.7817 36.855 27.4076 37.7475ZM25.0023 36.33C25.0735 35.8925 26.3386 35.805 26.1069 36.7675C25.8753 37.7475 25.5724 38.9025 25.3408 39.8825C25.2339 39.8825 25.127 39.8825 25.0201 39.8825C24.9132 39.8825 24.8063 39.8825 24.6994 39.8825C24.4678 38.9025 24.1649 37.7475 23.9333 36.7675C23.666 35.805 24.931 35.8925 25.0023 36.33ZM23.3097 37.135C23.5947 37.8875 23.9154 39.0775 24.2005 39.9175C23.9689 39.935 23.7373 39.9525 23.5235 39.9875C23.3987 39.69 23.0068 38.71 22.597 37.7475C22.205 36.855 23.1137 36.61 23.3097 37.135Z" fill="#022A50"/>
<path d="M38.8816 24.7099H29.1H19.3185H18.9622V25.0774V31.9374C19.0512 31.9899 19.1403 32.0599 19.2294 32.1299V25.0074H39.0419V31.6224C39.1132 31.6924 39.1845 31.7799 39.2557 31.9024V25.0599V24.6924H38.8816V24.7099Z" fill="#022A50"/>
<path d="M19.96 31.2725C20.4767 31.6925 20.6727 31.99 20.5123 33.39C20.4945 33.565 20.5836 33.8975 20.6905 34.2475H38.1334C38.1512 34.055 38.169 33.88 38.169 33.7225C38.1868 32.9525 38.0443 32.34 37.7948 32.095C37.7057 32.0075 37.6167 31.9725 37.4563 31.9725H37.4207L36.7258 32.0425L37.1 31.465C37.4563 30.8875 37.9908 30.555 38.5431 30.52V25.4275H19.7106V31.115C19.7818 31.15 19.8353 31.185 19.9066 31.2375L19.96 31.2725ZM31.0422 30.6075V30.2575L30.187 30.24C30.383 29.3475 32.1468 28.2275 32.9486 27.965C32.913 27.0025 34.1958 26.6875 35.2292 26.6525C36.512 26.6175 36.8149 27.9825 36.8149 28.4025C36.8149 28.9625 36.6724 30.205 35.9597 30.59C34.9263 31.15 34.0354 30.38 34.0354 29.68C34.0354 28.91 34.57 28.4725 35.5143 28.5775C36.4407 28.6825 36.3695 28.1575 35.6746 27.9825C35.3361 27.895 33.8573 27.825 33.3584 28.91C33.0733 28.9275 32.7704 28.805 32.5923 28.63C32.3963 28.875 32.0934 29.0325 31.6836 29.155C32.0399 29.8725 32.7704 29.75 33.2159 29.4175C33.198 29.5225 33.198 29.61 33.198 29.715C33.198 31.4825 35.1045 31.92 36.2804 31.255C36.0844 31.8325 36.1735 32.55 36.2626 33.04H31.6301C31.7014 32.55 32.325 31.99 32.8417 31.64L32.4319 31.01C31.933 31.22 31.452 31.43 30.9175 31.57C29.6346 31.8675 29.7059 30.9575 31.0422 30.6075ZM27.7817 32.0425C27.6035 32.2875 26.4989 32.62 26.2316 32.4625C25.7684 32.1825 25.5367 31.605 25.6436 31.3425C25.7684 31.01 26.9799 30.6775 27.3719 30.8C27.7639 30.9225 27.9242 31.815 27.7817 32.0425ZM21.3497 29.225C22.3653 28.6475 22.8998 28.2275 23.4343 27.405C23.0424 27.2125 22.5613 26.8625 22.205 26.3725C24.147 26.915 25.1269 27.195 27.4253 26.39C27.0512 26.9675 26.4989 27.3175 26.0356 27.615C26.5523 28.455 27.069 29.4175 27.2472 30.1875C26.5701 30.135 25.7862 30.2925 25.2338 30.8C24.3786 30.835 23.2918 31.0975 22.7038 29.19C22.4009 29.3475 22.0802 29.54 22.0802 29.54C22.4366 30.7825 23.078 31.64 24.7884 31.4475C24.8775 31.85 24.9488 32.0775 25.1626 32.41C24.4677 32.8125 22.7038 33.8275 21.3676 32.655V29.225H21.3497Z" fill="#022A50"/>
<path d="M19.7106 31.5176V34.2651H20.3336C20.2268 33.8976 20.1378 33.5826 20.1734 33.3726C20.3158 31.9726 20.1022 31.8326 19.7106 31.5176Z" fill="#022A50"/>
<path d="M38.5244 34.265V30.8525C38.115 30.8875 37.7056 31.1325 37.3851 31.64C37.4207 31.64 37.4563 31.64 37.4919 31.64C38.2574 31.64 38.5244 32.6725 38.5066 33.74C38.5066 33.915 38.4888 34.09 38.4888 34.265H38.5244Z" fill="#022A50"/>
<path d="M24.2895 29.5925C24.6102 29.75 25.02 29.5575 25.4298 29.61C25.3407 29.435 25.2516 29.3125 25.305 29.05C25.4119 28.56 25.0021 28.4375 24.824 28.4375C24.3429 28.4725 24.0935 28.56 23.5946 28.4375C23.9153 28.77 23.844 29.365 24.2895 29.5925Z" fill="#022A50"/>
<path d="M318.341 38.5701V30.1176C318.341 28.7876 318.234 28.4551 317.878 28.0351C317.593 27.7026 317.058 27.5101 316.471 27.5101C315.455 27.5101 313.869 28.3151 312.943 29.2601V38.5701H311.001V28.9451C311.001 27.1601 310.52 26.3026 310.52 26.3026L312.462 25.7776C312.462 25.7776 312.925 26.7051 312.925 27.7376C314.261 26.4251 315.58 25.8126 316.934 25.8126C318.306 25.8126 319.535 26.5301 320.052 27.6501C320.266 28.1051 320.355 28.6126 320.355 29.1026V38.5876H318.341V38.5701Z" fill="#022A50"/>
<path d="M272.783 38.5701V30.1176C272.783 28.7876 272.677 28.4551 272.32 28.0351C272.035 27.7026 271.501 27.5101 270.913 27.5101C269.897 27.5101 268.311 28.3151 267.385 29.2601V38.5701H265.443V28.9451C265.443 27.1601 264.962 26.3026 264.962 26.3026L266.904 25.7776C266.904 25.7776 267.367 26.7051 267.367 27.7376C268.703 26.4251 270.022 25.8126 271.376 25.8126C272.766 25.8126 273.977 26.5301 274.494 27.6501C274.69 28.1051 274.797 28.6126 274.797 29.1026V38.5876H272.783V38.5701Z" fill="#022A50"/>
<path d="M239.109 38.7101H237.149L232.57 26.1976L234.619 25.7776L237.577 34.3876C237.933 35.4201 238.183 36.5226 238.183 36.5226H238.236C238.236 36.5226 238.45 35.5426 238.842 34.4226L241.764 26.1101H243.884L239.109 38.7101Z" fill="#022A50"/>
<path d="M292.596 38.57V29.3475C292.596 28.14 292.043 27.51 290.957 27.51C289.816 27.51 288.908 28.245 287.589 29.435V38.57H285.576V29.6975C285.576 28.945 285.505 28.4375 285.22 28.0875C284.917 27.7375 284.507 27.58 283.919 27.58C282.939 27.58 281.995 28.0525 280.676 29.2425V38.57H278.752V28.8925C278.752 27.09 278.289 26.2325 278.289 26.2325L280.231 25.7775C280.231 25.7775 280.694 26.7575 280.694 27.6325C281.531 26.705 283.099 25.76 284.4 25.76C285.647 25.76 286.894 26.5125 287.358 27.8425C288.587 26.565 290.137 25.76 291.438 25.76C293.326 25.76 294.627 27.16 294.627 29.155V38.5875H292.596V38.57Z" fill="#022A50"/>
<path d="M300.132 32.6549V32.9524C300.132 34.1249 300.293 35.0349 300.72 35.6824C301.433 36.7674 302.609 37.2049 303.892 37.2049C305.121 37.2049 306.119 36.8199 307.01 36.0324L307.776 37.2924C306.653 38.2899 305.121 38.8499 303.482 38.8499C299.954 38.8499 297.834 36.3474 297.834 32.1999C297.834 30.0999 298.297 28.7349 299.366 27.4749C300.382 26.3024 301.647 25.7424 303.179 25.7424C304.551 25.7424 305.763 26.2149 306.618 27.0899C307.722 28.1924 308.079 29.3649 308.079 32.3574V32.6374H300.132V32.6549ZM305.371 28.3849C304.943 27.7024 304.052 27.2824 303.072 27.2824C301.255 27.2824 300.239 28.5774 300.132 31.1674H305.959C305.923 29.8199 305.745 28.9974 305.371 28.3849Z" fill="#022A50"/>
<path d="M247.198 32.6549V32.9524C247.198 34.1249 247.359 35.0349 247.786 35.6824C248.499 36.7674 249.675 37.2049 250.958 37.2049C252.187 37.2049 253.185 36.8199 254.076 36.0324L254.842 37.2924C253.719 38.2899 252.187 38.8499 250.548 38.8499C247.02 38.8499 244.9 36.3474 244.9 32.1999C244.9 30.0999 245.363 28.7349 246.432 27.4749C247.448 26.3024 248.713 25.7424 250.245 25.7424C251.617 25.7424 252.828 26.2149 253.701 27.0899C254.806 28.1924 255.162 29.3649 255.162 32.3574V32.6374H247.198V32.6549ZM252.436 28.3849C252.009 27.7024 251.1 27.2824 250.138 27.2824C248.321 27.2824 247.305 28.5774 247.198 31.1674H253.024C252.989 29.8199 252.811 28.9974 252.436 28.3849Z" fill="#022A50"/>
<path d="M263.483 27.965C263.358 27.9125 263.126 27.86 262.93 27.86C262.164 27.86 261.398 28.1925 260.81 28.77C260.222 29.3475 260.062 29.715 260.062 30.7475V38.57H258.066V28.945C258.066 27.1075 257.639 26.285 257.639 26.285L259.634 25.76C259.634 25.76 260.115 26.74 260.044 27.79C260.971 26.5125 262.307 25.7075 263.625 25.7075C263.964 25.7075 264.32 25.83 264.32 25.83L263.483 27.965Z" fill="#022A50"/>
<path d="M226.334 38.9025C222.842 38.9025 220.847 36.365 220.847 32.2525C220.847 28.1925 222.914 25.7075 226.263 25.7075C228.383 25.7075 229.773 26.6525 230.628 27.895C231.412 29.0325 231.804 30.5025 231.804 32.5325C231.804 36.6975 229.524 38.9025 226.334 38.9025ZM228.936 28.91C228.401 27.8075 227.279 27.3 226.228 27.3C225.105 27.3 224.054 27.825 223.626 28.6475C223.216 29.4175 223.02 30.4325 223.02 31.9025C223.02 33.6525 223.323 35.21 223.822 35.9975C224.285 36.75 225.301 37.2575 226.406 37.2575C227.742 37.2575 228.74 36.575 229.167 35.3675C229.452 34.5975 229.559 33.8975 229.559 32.655C229.524 30.9225 229.346 29.75 228.936 28.91Z" fill="#022A50"/>
<path d="M167.859 39.2349C167.075 38.9024 166.345 38.3249 166.024 37.6774C165.774 37.9224 165.489 38.1849 165.24 38.3599C164.598 38.8149 163.672 39.0599 162.603 39.0599C159.699 39.0599 158.113 37.6074 158.113 35.0524C158.113 32.0424 160.233 30.6424 164.402 30.6424C164.652 30.6424 164.884 30.6424 165.169 30.6599V30.1349C165.169 28.6999 164.884 28.2274 163.636 28.2274C162.532 28.2274 161.267 28.7524 159.859 29.6799L158.398 27.2649C159.093 26.8449 159.592 26.5824 160.518 26.2149C161.801 25.6899 162.888 25.4624 164.1 25.4624C166.291 25.4624 167.806 26.2674 168.322 27.7024C168.5 28.2274 168.572 28.6299 168.554 30.0124L168.483 34.3349C168.465 35.7349 168.554 36.3474 169.712 37.1874L167.859 39.2349ZM164.937 32.9524C162.567 32.9524 161.748 33.3724 161.748 34.9124C161.748 35.9099 162.389 36.5924 163.262 36.5924C163.904 36.5924 164.545 36.2599 165.044 35.7174L165.097 32.9524H164.937Z" fill="#022A50"/>
<path d="M114.942 33.1974V33.3024C114.942 35.2799 115.94 36.4174 117.704 36.4174C118.88 36.4174 119.984 35.9974 121.018 35.1399L122.354 37.1524C120.84 38.3599 119.272 38.9374 117.419 38.9374C113.659 38.9374 111.236 36.3299 111.236 32.2874C111.236 29.9774 111.717 28.4549 112.875 27.1949C113.945 26.0224 115.245 25.4624 116.991 25.4624C118.506 25.4624 119.931 25.9699 120.768 26.8099C121.962 28.0174 122.515 29.7499 122.515 32.4274V33.1974H114.942ZM118.951 30.5899C118.951 29.6449 118.844 29.1374 118.541 28.6649C118.203 28.1574 117.722 27.9124 117.027 27.9124C115.726 27.9124 114.978 28.9099 114.978 30.6949V30.7474H118.933V30.5899H118.951Z" fill="#022A50"/>
<path d="M101.722 33.1974V33.3024C101.722 35.2799 102.72 36.4174 104.484 36.4174C105.66 36.4174 106.764 35.9974 107.798 35.1399L109.134 37.1524C107.619 38.3599 106.034 38.9374 104.199 38.9374C100.439 38.9374 98.0161 36.3299 98.0161 32.2874C98.0161 29.9774 98.4972 28.4549 99.6553 27.1949C100.724 26.0224 102.025 25.4624 103.771 25.4624C105.285 25.4624 106.711 25.9699 107.548 26.8099C108.742 28.0174 109.294 29.7499 109.294 32.4274V33.1974H101.722ZM105.731 30.5899C105.731 29.6449 105.624 29.1374 105.321 28.6649C104.983 28.1574 104.502 27.9124 103.807 27.9124C102.506 27.9124 101.758 28.9099 101.758 30.6949V30.7474H105.713V30.5899H105.731Z" fill="#022A50"/>
<path d="M179.315 38.5701V30.2226C179.315 28.7701 179.048 28.3326 178.157 28.3326C177.462 28.3326 176.572 28.7876 175.788 29.4876V38.5701H172.367V29.2601C172.367 28.1576 172.206 27.1076 171.904 26.2501L174.95 25.3926C175.253 25.9176 175.431 26.4776 175.431 27.0026C175.948 26.6526 176.376 26.3551 176.946 26.0576C177.641 25.7076 178.531 25.4976 179.298 25.4976C180.759 25.4976 182.024 26.2501 182.433 27.3526C182.612 27.8251 182.683 28.3851 182.683 29.1901V38.5701H179.315Z" fill="#022A50"/>
<path d="M132.189 38.5701V30.2226C132.189 28.7701 131.94 28.3326 131.031 28.3326C130.336 28.3326 129.445 28.7876 128.661 29.4876V38.5701H125.24V29.2601C125.24 28.1576 125.08 27.1076 124.777 26.2501L127.824 25.3926C128.127 25.9176 128.305 26.4776 128.305 27.0026C128.822 26.6526 129.249 26.3551 129.819 26.0576C130.514 25.7076 131.405 25.4976 132.171 25.4976C133.632 25.4976 134.897 26.2501 135.307 27.3526C135.485 27.8251 135.557 28.3851 135.557 29.1901V38.5701H132.189Z" fill="#022A50"/>
<path d="M93.2588 38.9201C92.8312 38.6226 92.4749 38.2026 92.2432 37.6601C91.4058 38.4651 90.1765 38.8851 88.8046 38.8851C86.9694 38.8851 85.3837 38.0276 84.9383 36.8026C84.7423 36.2251 84.6532 35.5426 84.6532 34.2476V26.0226L88.0206 25.3926V33.6526C88.0206 34.8076 88.1275 35.4026 88.3057 35.7526C88.4839 36.1026 89.0005 36.3476 89.4994 36.3476C90.3368 36.3476 91.3702 35.7526 91.6196 35.1226V26.0926L94.898 25.4101V35.2101C94.898 36.0676 95.183 36.9426 95.6819 37.5376L93.2588 38.9201Z" fill="#022A50"/>
<path d="M143.325 38.9725C141.722 38.9725 139.958 38.465 138.033 37.5025L139.263 35.0525C140.314 35.6825 142.131 36.505 143.61 36.505C144.572 36.505 145.338 35.875 145.338 35.0525C145.338 34.1775 144.697 33.7225 143.325 33.4775L141.793 33.1975C140.92 33.04 139.851 32.445 139.388 31.885C138.924 31.3425 138.639 30.3975 138.639 29.575C138.639 27.0725 140.653 25.375 143.699 25.375C145.802 25.375 147.174 26.005 148.367 26.5825L147.245 28.84C145.944 28.1925 145 27.9125 144.02 27.9125C143.022 27.9125 142.363 28.42 142.363 29.1725C142.363 29.82 142.791 30.17 144.002 30.4675L145.588 30.87C147.191 31.2725 147.726 31.745 148.189 32.3225C148.67 32.9175 148.902 33.6525 148.902 34.51C148.92 37.17 146.675 38.9725 143.325 38.9725Z" fill="#022A50"/>
<path d="M328.942 27.5624H326.288V35.6124C326.288 36.9949 326.662 37.4674 327.927 37.4674C328.479 37.4674 328.818 37.3974 329.174 37.2224L329.459 38.4824C328.818 38.8149 328.105 38.9899 327.214 38.9899C326.555 38.9899 326.038 38.8674 325.557 38.6399C324.666 38.2199 324.328 37.4149 324.328 36.1549V27.5799H322.671V26.0749H324.328C324.328 24.8674 324.524 22.9074 324.524 22.9074L326.626 22.4524C326.626 22.4524 326.377 24.4124 326.377 26.0574H329.566L328.942 27.5624Z" fill="#022A50"/>
<path d="M213.114 38.8501C210.923 38.8501 209.052 38.0975 207.716 36.6975C206.237 35.1225 205.542 32.9875 205.542 30.03C205.542 26.74 206.433 24.4125 208.25 22.8025C209.497 21.7 211.012 21.175 212.829 21.175C214.7 21.175 216.303 21.7525 217.622 22.8725L216.678 24.15C215.252 23.205 214.219 22.82 212.865 22.82C210.816 22.82 209.212 23.7475 208.5 25.725C208.036 27.0025 207.805 28.4551 207.805 30.1001C207.805 32.3576 208.232 34.1776 209.034 35.3151C209.836 36.4526 211.618 37.1525 213.275 37.1525C214.379 37.1525 215.324 36.9251 216.054 36.4701V31.22H212.526L212.116 29.5226H218.014V37.555C216.785 38.3425 214.896 38.8501 213.114 38.8501Z" fill="#022A50"/>
<path d="M82.5869 41.5276C82.5869 41.5276 82.0702 41.8251 81.0012 41.8251C79.6293 41.8251 78.3999 41.0201 77.7407 40.6001C76.9033 40.0576 75.5135 39.2701 74.1416 38.8501C71.4869 38.8501 69.7408 38.1326 68.3867 36.4001C67.0326 34.6851 66.3378 32.4801 66.3378 29.9251C66.3378 26.1626 67.7988 23.1351 70.3466 21.7701C71.3978 21.2276 72.6984 20.9126 74.0169 20.9126C78.7384 20.9126 81.6604 24.3076 81.6604 29.7676C81.6604 33.5476 80.2885 36.3826 78.1683 37.7651C78.6493 37.9401 79.3442 38.3951 79.754 38.6401C80.3954 39.0076 81.1615 39.3576 81.9455 39.3576C82.7116 39.3576 83.5312 39.2351 83.5312 39.2351L82.5869 41.5276ZM77.0992 25.8301C76.8142 24.9551 75.8699 23.6251 73.9813 23.6251C72.7875 23.6251 71.7363 24.2201 71.2196 25.1476C70.6139 26.2676 70.3288 27.8076 70.3288 29.9076C70.3288 32.9176 70.8455 34.8076 71.9145 35.5601C72.4846 35.9626 73.1973 36.1551 74.0347 36.1551C76.5113 36.1551 77.5625 34.3001 77.5625 29.8551C77.5625 28.0876 77.4021 26.8101 77.0992 25.8301Z" fill="#022A50"/>
<path d="M194.442 38.57C194.335 38.3775 194.281 38.1675 194.246 37.8175C193.408 38.5525 192.411 38.9025 191.235 38.9025C187.921 38.9025 185.818 36.365 185.818 32.375C185.818 28.3675 188.081 25.6025 191.413 25.6025C192.357 25.6025 193.105 25.83 193.729 26.3375C193.676 26.0575 193.622 25.1825 193.622 24.43V20.02L197.025 20.545V33.8975C197.025 37.065 197.275 38.08 197.506 38.5875H194.442V38.57ZM193.676 29.12C193.034 28.56 192.428 28.2975 191.805 28.2975C190.272 28.2975 189.613 29.5575 189.613 32.41C189.613 35.175 190.201 36.0675 191.983 36.0675C192.624 36.0675 193.337 35.63 193.676 35.245V29.12Z" fill="#022A50"/>
<path d="M154.995 38.8676C153.534 38.8676 152.358 38.1851 151.948 37.1176C151.699 36.4701 151.645 36.0676 151.645 34.2301V24.6401C151.645 22.9601 151.592 21.9276 151.467 20.7726L154.959 19.9851C155.084 20.6851 155.137 21.5076 155.137 23.3276V33.3376C155.137 35.5426 155.155 35.8401 155.369 36.1901C155.494 36.4176 155.779 36.5401 156.064 36.5401C156.189 36.5401 156.278 36.5401 156.438 36.4876L157.026 38.5001C156.438 38.7451 155.725 38.8676 154.995 38.8676Z" fill="#022A50"/>
<path d="M31.7903 20.615C31.6656 20.615 31.5409 20.6675 31.4696 20.7725C31.3271 20.755 31.1846 20.72 31.0242 20.7025V19.915C31.1668 19.8625 31.2737 19.7225 31.2737 19.5475C31.2737 19.3375 31.0955 19.145 30.8817 19.145C30.6679 19.145 30.4897 19.32 30.4897 19.5475C30.4897 19.6875 30.5788 19.8275 30.7035 19.8975V20.65C30.561 20.6325 30.4363 20.615 30.2759 20.615C30.2225 20.475 30.0799 20.3875 29.9196 20.3875C29.7058 20.3875 29.5276 20.5625 29.5276 20.7725C29.5276 20.9825 29.7058 21.1575 29.9196 21.1575C30.0621 21.1575 30.1868 21.0875 30.2581 20.9825C30.4184 21 30.561 21.0175 30.7035 21.035L30.6857 22.1725C30.561 22.2425 30.4719 22.365 30.4719 22.5225C30.4719 22.7325 30.6501 22.925 30.8639 22.925C31.0777 22.925 31.2737 22.75 31.2737 22.5225C31.2737 22.365 31.1668 22.225 31.042 22.1725L31.0599 21.07C31.1846 21.0875 31.3093 21.105 31.434 21.1225C31.4875 21.28 31.63 21.385 31.8082 21.385C32.022 21.385 32.2001 21.21 32.2001 21C32.1823 20.79 32.0042 20.615 31.7903 20.615Z" fill="#022A50"/>
<path d="M28.3161 20.3875C28.1557 20.3875 28.0132 20.475 27.9419 20.615C27.7994 20.6325 27.6569 20.6325 27.5143 20.65V19.8975C27.639 19.8275 27.7281 19.705 27.7281 19.5475C27.7281 19.3375 27.55 19.145 27.3362 19.145C27.1045 19.145 26.9264 19.32 26.9264 19.5475C26.9264 19.705 27.0333 19.845 27.158 19.915L27.1758 20.7025C27.0333 20.72 26.8729 20.7375 26.7304 20.7725C26.6591 20.685 26.5522 20.615 26.4097 20.615C26.1959 20.615 26.0177 20.79 26.0177 21.0175C26.0177 21.2275 26.1959 21.4025 26.4097 21.4025C26.5878 21.4025 26.7304 21.2975 26.7838 21.14C26.9085 21.1225 27.0333 21.105 27.158 21.0875L27.1758 22.19C27.0333 22.2425 26.9442 22.3825 26.9442 22.54C26.9442 22.75 27.1224 22.9425 27.3362 22.9425C27.55 22.9425 27.7459 22.7675 27.7459 22.54C27.7459 22.3825 27.6569 22.26 27.5321 22.19V21.0525C27.6747 21.035 27.8172 21.0175 27.9776 21C28.0488 21.105 28.1736 21.175 28.3161 21.175C28.5299 21.175 28.7259 21 28.7259 20.79C28.7259 20.5625 28.5299 20.3875 28.3161 20.3875Z" fill="#022A50"/>
<path d="M41.8394 12.2849C41.8394 9.83489 41.7503 7.82239 41.7147 7.19239C41.8037 7.20989 41.9106 7.24489 42.0176 7.27989C43.7993 7.89239 44.209 10.0099 47.915 7.61239C45.9373 7.83989 45.8304 6.19489 44.9217 6.15989C46.2936 5.38989 46.3827 3.63989 46.3827 3.63989C45.2424 4.54989 42.5699 4.60239 42.0532 4.89989C41.3583 5.30239 40.5031 5.80989 39.9151 6.12489C38.3829 6.94739 39.4519 11.4274 39.2915 13.0549C38.4541 10.6224 36.7794 10.9899 35.9063 9.58989C35.2471 10.7624 35.942 12.7049 36.2092 13.2649C35.2471 14.0349 35.5143 15.4349 35.746 15.8199C36.5655 15.2424 37.8306 15.3824 38.2047 16.3624C37.1357 17.0099 35.3362 17.1149 34.1068 15.9599L33.6792 16.4324C34.5522 17.5524 36.7081 17.9899 38.3294 17.0799C38.3294 17.3424 38.2582 17.6224 38.1513 17.9374C37.3139 18.3749 36.227 18.6024 34.9976 18.1824C35.158 19.4074 36.6012 20.3174 37.9731 20.7024C37.5098 21.0524 36.9397 21.1924 36.5299 21.1399C36.7972 21.8574 36.9397 22.8024 36.3874 23.5549C35.7103 23.1174 35.3362 22.6624 35.0867 20.9474C34.8195 19.2149 33.5545 17.4649 32.5745 17.1149C32.5211 17.7274 32.5211 17.4649 32.628 17.8499C35.2293 19.7224 33.7683 23.1174 36.4765 24.3424C37.4742 23.2224 37.492 22.8374 37.3317 21.7874C38.3116 21.5249 39.0421 20.7199 39.3094 20.0899C38.3829 20.5274 36.9041 19.7574 36.4943 19.1624C38.1156 19.1099 39.6123 17.9199 41.1445 16.3449C42.5164 14.9449 44.3338 15.1549 44.1912 16.2574C45.1355 16.1174 45.5097 14.8574 45.2068 14.0349C46.5965 13.5974 47.6834 12.5999 47.8259 11.0249C45.9551 11.9349 43.6033 10.4299 41.8394 12.2849ZM44.0665 13.5974C44.797 14.1924 44.5654 15.0324 44.3872 15.2249C43.7458 14.1399 41.679 14.5074 39.6479 16.7649C39.5054 16.9399 39.3094 17.1324 39.0956 17.3249C39.2559 14.6299 37.011 14.5774 36.3517 14.8574C36.423 14.0874 36.9219 13.5449 37.1713 13.4749C36.5121 12.7224 36.3696 11.7774 36.2983 11.0774C37.4029 11.5499 39.0243 12.8099 39.2915 14.9799L40.0042 14.5074C39.7904 10.7099 39.8439 10.7274 39.8082 8.15489C39.8082 7.78739 39.8261 6.94739 40.9842 7.03489C41.0376 7.99739 41.1802 10.5349 41.1267 14.0699H41.5365C41.9106 13.0899 43.2469 11.9174 44.797 12.0224C45.8482 12.0924 46.2224 12.0749 46.8281 11.8124C46.3471 13.0024 44.5476 13.5274 44.0665 13.5974ZM41.0376 6.36989C41.7859 5.84489 42.267 5.59989 42.659 5.37239C43.3004 5.38989 44.4228 5.31989 45.0821 4.98739C44.3872 5.82739 44.3159 6.12489 43.1757 6.24739C44.6545 6.36989 45.2781 7.66489 45.9907 7.87489C43.532 8.62739 43.2826 6.22989 41.0376 6.36989Z" fill="#022A50"/>
<path d="M25.5545 18.3051C24.1826 18.3751 22.8463 20.1251 23.3987 22.1201C23.1848 22.1901 22.5969 22.1901 22.4009 21.7876C22.2584 22.4351 20.9043 23.1876 19.9243 23.0826C20.4588 22.5051 20.833 21.2101 21.8842 20.5276C22.9532 19.8451 23.4165 19.3726 23.7906 18.2001C23.2918 18.4276 20.7439 19.0751 20.0134 18.3051C21.706 18.0601 23.6837 17.1326 24.6637 16.5201L24.2717 16.1176C23.2205 16.7126 21.8129 17.1851 21.1003 17.4126C20.8508 15.3476 22.8463 15.4351 23.0067 15.9951C23.8263 15.0326 23.2561 13.6501 22.6503 13.4926C23.2739 11.8476 22.6503 10.8326 22.1158 10.2201C21.9911 11.9701 19.9956 12.2501 19.764 13.5976C19.6927 12.5301 19.6214 9.64258 19.5324 8.24258C19.4076 5.61758 16.0402 4.69008 15.5235 4.69008C13.332 4.79508 13.1361 4.51508 13.1895 3.51758C12.067 4.76008 12.4412 5.86258 13.3855 6.40508C13.2608 7.15758 12.0492 7.73508 11.3009 7.89258C13.0826 9.52008 15.1494 8.55758 16.1471 7.63008C16.2184 7.56008 16.2718 7.50758 16.3431 7.43758C16.6995 8.05008 16.9667 9.18758 16.9667 9.83508C15.2919 9.74758 15.0068 11.0076 15.0068 11.4801C17.1271 10.6226 17.3587 14.6126 17.911 15.2426C17.3765 15.2076 16.4144 13.9651 15.0068 13.8776C13.2964 13.7901 12.7084 14.6826 12.0136 14.6476C12.1383 15.8201 13.5993 16.4851 14.5436 16.6251C14.0625 17.8326 14.4901 18.6551 15.4879 18.9526C15.4879 17.8501 16.9133 17.5001 18.4277 18.3751C20.2629 19.4251 21.1893 19.5126 22.6682 19.0751C22.4187 19.6001 21.7595 19.6526 20.9577 20.4401C19.8174 21.5426 19.7818 22.9776 18.5168 23.5026C20.0134 24.2026 22.2584 23.2226 22.5791 22.6626C23.2027 23.0476 24.0044 22.8201 24.2182 22.4351C23.2027 20.2301 24.9131 18.9351 25.5901 18.9526C25.5901 18.9351 25.893 18.2876 25.5545 18.3051ZM17.8041 17.4126C17.0558 17.1151 15.8977 16.9226 15.2563 17.8151C14.8999 17.2026 15.4166 16.3101 15.7373 16.0301C14.0982 16.0651 13.1717 15.5751 12.9223 15.0851C13.528 14.7526 15.0603 14.2101 16.3253 15.1201C17.1983 15.7501 17.6259 16.0476 18.6593 16.3801C19.0335 16.0126 18.8909 16.1876 19.0157 16.0826C18.1783 15.5051 17.8041 11.1126 16.1471 10.9551C16.3788 10.3951 17.234 10.4476 17.9288 10.6226C17.9823 9.64258 17.5725 8.01508 16.9489 7.07008C17.911 6.58008 18.5702 7.10508 18.8909 8.27758C19.2473 9.52008 18.8197 12.6176 19.6571 15.4176L20.1738 14.9451C19.9065 13.3176 21.7417 12.7226 22.1336 11.9001C22.294 12.9851 22.0624 13.4926 21.7417 13.8776C22.4009 13.9476 22.7038 14.5951 22.5969 15.0326C21.0112 14.8051 20.0847 16.3626 20.441 17.6051C19.2473 17.8676 18.4455 17.6751 17.8041 17.4126ZM13.2964 5.18008C14.5436 5.77508 14.9534 4.67258 17.2874 6.16008C15.7373 6.63258 14.5436 8.52258 12.7975 8.03258C14.0447 7.42008 13.92 6.52758 14.6505 6.07258C14.1873 6.02008 13.2786 5.81008 13.2964 5.18008Z" fill="#022A50"/>
<path d="M33.6257 23.7651C33.3762 22.1901 32.8061 17.7451 32.7348 16.2751L32.04 16.3101C32.04 16.5551 32.0756 16.8876 32.1112 17.2901C31.2916 17.0451 30.2048 16.8876 29.1002 16.8876C27.9955 16.8876 26.9087 17.0626 26.0891 17.2901C26.1247 16.9051 26.1603 16.5726 26.1603 16.3101L25.4833 16.2576C25.412 17.7451 24.8419 22.1726 24.5925 23.7476C24.1827 23.9051 23.9154 24.3076 23.9154 25.0251C23.9154 25.0251 27.657 25.0776 29.118 25.0776C30.579 25.0776 34.3205 25.0251 34.3205 25.0251C34.3027 24.3076 34.0355 23.9226 33.6257 23.7651ZM29.1002 23.7126C28.5122 24.8326 27.4075 24.7976 26.4276 24.1676C26.0356 23.9226 25.6437 23.7476 25.2695 23.6951C25.4299 22.5926 25.7149 20.5276 25.9109 18.7776C27.1581 18.2176 28.7082 18.0951 29.0823 19.5126C29.4565 18.0951 31.0066 18.2351 32.2538 18.7776C32.4498 20.5276 32.7348 22.6101 32.8952 23.6951C32.5388 23.7476 32.129 23.9226 31.7371 24.1676C30.8106 24.7976 29.7059 24.8326 29.1002 23.7126Z" fill="#022A50"/>
<path d="M36.8685 6.51C36.8863 6.16 36.2271 5.8975 36.0489 5.88C35.7638 5.8625 35.4253 6.44 35.0512 6.79C34.7305 5.11 34.8908 4.375 35.069 3.6225C35.7995 4.9175 36.7794 5.1975 37.2961 5.1275C35.55 3.7625 35.8529 2.52 35.3184 2.45C35.0155 2.415 34.8017 2.4325 34.6414 2.4325C34.0356 2.4325 33.9465 3.605 33.8574 4.13C33.4654 3.4125 33.0735 2.8 32.3964 1.96C31.755 0.3325 30.9711 0.735 30.1693 0C30.7929 0.9275 30.294 1.505 31.7372 2.17C32.1114 2.52 32.5568 3.08 32.8419 3.5175C32.5924 3.8325 32.4321 4.0075 32.2004 4.235C32.0223 4.4975 31.9332 5.5125 31.3809 6.265C32.2004 5.915 32.539 5.4075 32.824 4.935C35.4431 6.8775 33.3229 11.8125 32.7171 12.8975C32.147 12.5125 31.3987 12.3025 30.7394 12.18L30.6682 11.9525L30.0624 10.01H30.3475C30.6682 10.01 30.7573 9.8 30.7038 9.625L32.5033 10.1675L33.3051 10.4125L32.824 9.7475L31.9866 8.61L32.824 7.4725L33.3051 6.8075L32.5033 7.0525L30.882 7.5425C30.7751 7.175 30.4722 7 30.1337 6.965L30.686 5.1625L30.9176 4.3925L30.2584 4.865L29.1003 5.6875L27.9422 4.865L27.2829 4.3925L27.5146 5.1625L28.0669 6.965C27.7462 7.0175 27.4255 7.1925 27.3186 7.5425L25.6972 7.0525L24.8955 6.8075L25.3765 7.4725L26.2139 8.61L25.3765 9.7475L24.8955 10.4125L25.6972 10.1675L27.5146 9.625C27.4611 9.8 27.5324 10.01 27.8531 10.01H28.1382L27.5324 11.9525L27.4433 12.1975C26.7484 12.32 26.0001 12.5475 25.43 12.9325C23.6661 9.59 24.165 6.195 25.6438 5.075C25.626 5.7925 26.2496 6.755 26.5524 6.9475C26.3565 6.2125 26.695 4.9 26.303 4.5675C26.0358 4.34 25.626 4.235 25.1805 4.235C25.4834 3.745 25.8932 3.1325 26.5881 2.24C27.6215 1.785 27.9244 0.595 28.1738 0C27.0513 0.4025 26.2139 0.98 26.0358 1.9075C25.6438 2.4325 25.1984 3.045 24.6995 3.7625C24.7351 2.8875 24.2362 2.59 23.5948 2.5375C21.7062 2.9225 21.8309 4.27 20.2096 5.1975C21.3142 5.5825 23.0603 3.185 23.6661 3.4475C23.7552 4.9175 23.4167 6.0725 23.4167 6.8775C23.1316 6.5625 22.989 6.3525 22.7396 6.3175C22.508 6.2825 21.8666 6.335 21.439 6.8075C21.3142 7.56 21.3499 8.96 20.6372 10.6225C21.6884 9.6775 22.2051 7.805 22.3655 7.2625C22.6327 7.63 22.9356 8.435 23.0069 9.135C23.1316 10.465 23.969 12.705 24.6817 13.7725C24.4857 14.14 24.4322 14.56 24.5035 15.0325C23.9512 15.435 23.8799 15.995 24.0759 16.38C24.2897 16.7825 24.8242 17.0625 25.4656 16.8175L25.6616 16.73C26.3386 16.45 27.5858 15.9425 29.1003 15.9425C30.6147 15.9425 31.8797 16.45 32.539 16.73L32.735 16.8175C33.3764 17.0625 33.9109 16.7825 34.1247 16.38C34.3207 15.995 34.2494 15.435 33.6971 15.0325C33.7683 14.5425 33.6971 14.0875 33.4654 13.685L33.4833 13.7025C34.7839 11.8825 34.873 8.4175 35.942 7.4375C36.0311 8.645 36.6903 9.66 37.3317 9.8C36.8329 8.9425 36.8329 7.28 36.8685 6.51ZM30.9354 8.1375L31.8976 7.84L31.4343 8.47L31.3096 8.6275L31.4343 8.785L31.8976 9.415L30.686 9.0475C30.7751 8.8025 30.8642 8.54 30.9354 8.1375ZM26.3386 9.4325L26.8019 8.8025L26.9266 8.645L26.8019 8.4875L26.3386 7.8575L27.3008 8.155C27.3542 8.5575 27.4433 8.8375 27.5502 9.0825L26.3386 9.4325ZM30.1337 9.1175H29.3854L29.4744 7.805C30.5969 7.2975 30.5078 8.33 30.1337 9.1175ZM29.9199 11.3575L29.2785 10.9025L29.1181 10.78L28.9577 10.9025L28.3163 11.3575L28.7261 10.0275H29.5101L29.9199 11.3575ZM28.9399 6.265L29.1003 6.3875L29.2606 6.265L29.9199 5.7925L29.5457 7.035C29.5279 7.035 29.5101 7.035 29.5101 7.0525C29.4388 6.895 29.2785 6.79 29.1003 6.79C28.9221 6.79 28.7618 6.895 28.6905 7.0525C28.6727 7.0525 28.6727 7.0525 28.6549 7.035L28.2807 5.7925L28.9399 6.265ZM28.0847 9.1175C27.7106 8.33 27.6215 7.2975 28.7439 7.805L28.833 9.1175H28.0847ZM29.1003 11.4625L30.0089 12.11C29.617 12.075 29.2963 12.075 29.1003 12.075C28.9043 12.075 28.5836 12.075 28.1916 12.11L29.1003 11.4625ZM25.3943 16.0825L25.1984 16.1525C24.9311 16.2575 24.7529 16.17 24.6817 16.0475C24.6104 15.9075 24.6638 15.68 24.9846 15.4875C25.0202 15.47 25.0736 15.435 25.1271 15.4175L25.7685 15.925C25.626 15.995 25.5012 16.0475 25.3943 16.0825ZM27.568 15.4L26.9088 14.77C27.4611 14.63 28.0313 14.5425 28.5836 14.5075L28.9756 15.26C28.4767 15.26 27.9956 15.33 27.568 15.4ZM31.2383 15.54L30.8463 14.665C31.4343 14.77 32.0045 14.945 32.5033 15.155L32.735 16.065C32.3608 15.9075 31.8619 15.6975 31.2383 15.54ZM29.1003 13.8075C27.8531 13.8075 26.4277 14.105 25.3409 14.56C25.3587 14.315 25.4478 14.1225 25.5903 13.93C26.2139 13.1775 27.8709 12.915 29.0825 12.915C30.294 12.915 31.951 13.1775 32.5746 13.93C32.735 14.105 32.8062 14.315 32.824 14.56C31.7728 14.0875 30.3831 13.8075 29.1003 13.8075Z" fill="#022A50"/>
<path d="M20.1916 33.3199C20.3519 31.9024 20.1203 31.7799 19.7105 31.4474C19.3542 31.1499 18.7484 31.0624 18.1604 30.6599C17.7328 30.3624 17.6081 29.9599 17.0736 29.3999C17.1805 28.2099 18.0535 26.7399 18.6949 26.4074C18.784 26.3549 18.7662 24.4999 18.7662 24.4999C18.7662 24.4999 19.1938 24.4824 19.1582 24.4649C18.588 24.1149 17.8932 24.3774 17.3943 24.9549C16.9132 25.3399 15.7908 26.0749 15.0246 26.3374C13.9913 25.4799 12.3699 24.7099 11.1762 23.5549C11.1762 23.5549 12.7441 23.5374 13.4746 23.2574C13.6705 23.1349 14.1694 22.3649 13.9556 21.6124C13.7062 21.5249 13.3677 21.3499 13.0113 21.1574C12.5837 20.9124 12.1739 20.6674 11.9779 20.5099C11.3009 20.0024 11.0158 19.5649 9.83989 19.2674C9.91116 18.7424 10.0359 18.8649 10.5526 18.5149C11.2118 18.0774 11.586 17.5524 11.8532 17.0274C12.0492 16.6249 11.8176 15.7849 11.3009 16.8524C11.1227 17.2199 10.606 17.7274 10.0181 17.8849C10.0715 17.5524 10.0893 17.3599 10.0893 17.1849C11.8176 15.9949 11.6394 14.9449 11.5147 13.9474C11.4078 13.3699 10.8376 13.1249 10.8555 13.7199C10.8733 14.1224 11.2296 15.2424 10.0537 15.8899C10.0181 15.3999 9.89334 15.1724 9.78644 14.9274C10.8376 13.5624 10.3922 12.2499 9.94679 11.6549C9.66172 11.2699 8.98467 11.1474 9.28756 11.7424C9.55482 12.2324 9.96461 13.5799 9.18066 14.1224C8.9134 13.8074 8.61051 13.6674 8.50361 13.2299C8.57488 11.7599 8.4858 10.8499 8.28981 10.3249C8.11164 9.83491 7.63058 9.51991 7.66621 10.2549C7.70185 11.0774 7.77312 12.1099 7.70185 12.1624C7.63058 12.2324 6.52592 11.2174 6.0805 10.9199C5.61726 10.6049 5.08275 10.7274 5.59944 11.3399C6.0805 11.8649 7.48804 12.8974 7.30987 13.2299C7.20297 13.4399 6.1874 12.6174 5.65289 12.4424C5.11838 12.2674 4.95803 12.5474 5.40345 12.8974C6.13395 13.4749 6.61501 13.8599 7.80875 14.2624C9.00249 14.6474 9.59045 16.2749 9.21629 18.5849C9.19848 18.6899 9.00249 18.6724 8.87777 18.6374C8.82432 17.7624 8.66397 16.6949 8.45016 16.2399C8.16509 15.6099 7.61276 15.6099 7.80875 16.4324C7.9691 17.0799 8.05819 17.7974 7.95129 18.6724C6.97135 18.5149 6.59719 18.2524 6.1874 18.0074C6.15177 17.5524 6.38339 16.8174 6.41902 16.1699C6.45466 15.5224 6.06268 15.1199 5.84888 15.9249C5.63507 16.7124 5.49254 17.0799 5.36782 17.6399C5.08275 17.5524 4.77986 17.4299 4.65514 17.2724C4.58387 17.2024 4.65514 16.3274 4.58387 15.6799C4.5126 14.9624 4.22753 14.9799 4.01373 15.6099C3.90682 15.9074 3.83556 16.2924 3.79992 16.7474C3.4614 16.5549 3.22978 16.1699 3.19414 15.8374C3.2476 15.0849 3.37231 14.2974 3.4614 13.7899C3.53267 13.4399 3.28323 12.7049 2.99816 13.5799C2.78435 14.2274 2.7309 14.7524 2.60618 15.1899C2.35675 15.1724 2.03604 13.7549 1.85787 12.8274C1.7866 12.4249 1.43026 11.9524 1.35899 12.8624C1.28772 13.8949 1.50153 14.9274 1.76878 15.3824C1.26991 15.3299 0.788848 14.4374 0.432508 13.9124C0.129619 13.4574 -0.0307339 13.9299 0.00490011 14.1224C0.307789 15.9424 1.7866 16.5899 2.44583 16.7124C3.47922 18.1649 5.4569 18.7949 7.1317 19.5124C4.95803 19.4949 4.38788 20.3524 3.39013 19.7924C3.42577 20.5974 3.83556 20.9649 4.22753 21.1574C4.5126 21.2799 4.77986 21.3149 4.90458 21.3499C5.08275 22.3299 6.02705 22.2774 6.82881 22.3299C6.61501 24.2374 6.86445 26.7574 8.55706 28.6299C8.50361 29.5924 8.43234 30.8699 8.45016 31.7099C7.07825 32.9524 5.83106 35.6124 5.35 37.0824C4.97584 38.1849 4.42352 39.0424 3.5683 39.4449C4.26316 40.1624 5.29655 39.8124 5.90233 39.4099C5.93796 40.0574 6.09832 40.5124 6.20522 40.8974C5.81324 41.4749 5.52817 41.8774 5.56381 42.5949C5.11838 42.7174 4.79767 42.9974 4.56605 43.2949C4.4057 43.4874 4.58387 44.3624 4.76204 44.7299C5.31437 45.9549 4.88676 48.7199 4.77986 49.5249C5.01148 49.5424 5.43909 49.5424 5.52817 49.2099C5.67071 49.3324 6.00923 49.5774 6.16958 50.1024C6.13395 50.3299 5.99141 51.1874 6.43684 51.2924C6.79318 51.3799 8.36108 51.3274 8.57488 51.0649C8.41453 50.8899 8.14727 50.4699 7.98692 50.0674C7.98692 49.6474 7.95129 49.1399 7.82657 48.9299C7.6484 48.6149 7.20297 47.9149 6.90008 47.6349C6.84663 47.1274 6.79318 44.8699 7.0248 44.0124C7.43459 43.7324 10.1784 41.7374 10.7486 39.8124C11.2474 39.9874 11.1049 41.3174 11.1049 43.0499C11.1049 43.5224 11.675 43.7499 12.0314 43.8024C12.7797 43.8899 13.8309 44.5899 15.0246 46.3224C15.2563 46.0774 15.5591 45.8499 15.5591 45.8499C15.7195 46.0599 15.8977 46.5499 16.0046 46.8649C16.1293 47.1099 17.0914 47.2499 17.8219 47.0224C18.0713 46.9349 18.2139 46.8999 18.3742 46.6374C17.4478 45.0449 16.8776 43.9774 15.6839 43.1024C15.1315 42.6999 14.3832 42.4899 13.7596 42.1049C14.1694 41.3349 15.3097 37.7649 14.6327 36.4524C14.401 36.0149 13.528 35.5949 12.4768 35.7874C13.3498 34.7549 15.1494 32.6899 15.381 32.0599C15.5948 32.3049 16.646 32.1299 17.4299 32.4449C17.715 32.5674 18.5168 33.5824 18.5524 33.9324C18.6237 34.5624 18.6593 35.3149 18.2139 37.0474C18.5346 36.9949 18.4811 36.9774 18.784 36.8549C18.8375 37.3099 18.6949 37.6774 18.2852 38.3774C18.3921 39.0074 18.6771 39.9699 18.98 40.1449C19.372 38.9724 20.8508 37.3274 20.8152 36.3474C20.7439 35.0174 20.1203 33.8974 20.1916 33.3199Z" fill="#022A50"/>
</svg>
